<mxfile host="app.diagrams.net" modified="2022-03-16T08:22:22.763Z" agent="5.0 (Macintosh; Intel Mac OS X 10_15_7) AppleWebKit/537.36 (KHTML, like Gecko) Chrome/99.0.4844.51 Safari/537.36" etag="fLWeIvc_r4DhdvfvFygW" version="16.6.5" type="github">
  <diagram id="2cCUETR229FUeI0vp7rU" name="Page-1">
    <mxGraphModel dx="1209" dy="565" grid="0" gridSize="10" guides="1" tooltips="1" connect="1" arrows="1" fold="1" page="0" pageScale="1" pageWidth="1100" pageHeight="850" math="0" shadow="0">
      <root>
        <mxCell id="0" />
        <mxCell id="1" parent="0" />
        <mxCell id="mRD8FD_FBO0UX32xd2J2-50" value="" style="edgeStyle=orthogonalEdgeStyle;orthogonalLoop=1;jettySize=auto;html=1;" edge="1" parent="1" source="mRD8FD_FBO0UX32xd2J2-1" target="mRD8FD_FBO0UX32xd2J2-15">
          <mxGeometry relative="1" as="geometry" />
        </mxCell>
        <mxCell id="mRD8FD_FBO0UX32xd2J2-1" value="Internet" style="ellipse;shape=cloud;whiteSpace=wrap;html=1;fillColor=#f8cecc;strokeColor=#b85450;" vertex="1" parent="1">
          <mxGeometry x="335" y="50" width="90" height="80" as="geometry" />
        </mxCell>
        <mxCell id="mRD8FD_FBO0UX32xd2J2-54" value="" style="edgeStyle=orthogonalEdgeStyle;orthogonalLoop=1;jettySize=auto;html=1;" edge="1" parent="1" source="mRD8FD_FBO0UX32xd2J2-5" target="mRD8FD_FBO0UX32xd2J2-1">
          <mxGeometry relative="1" as="geometry" />
        </mxCell>
        <mxCell id="mRD8FD_FBO0UX32xd2J2-5" value="" style="shape=image;verticalLabelPosition=bottom;labelBackgroundColor=default;verticalAlign=top;aspect=fixed;imageAspect=0;image=https://encrypted-tbn0.gstatic.com/images?q=tbn:ANd9GcTp-WwfINu2xI_Pzg9csZauo6u1_5gF5LswAg&amp;usqp=CAU;" vertex="1" parent="1">
          <mxGeometry x="180" y="60" width="60" height="60" as="geometry" />
        </mxCell>
        <mxCell id="mRD8FD_FBO0UX32xd2J2-51" value="" style="edgeStyle=orthogonalEdgeStyle;orthogonalLoop=1;jettySize=auto;html=1;entryX=1;entryY=0.5;entryDx=0;entryDy=0;" edge="1" parent="1" source="mRD8FD_FBO0UX32xd2J2-15" target="mRD8FD_FBO0UX32xd2J2-18">
          <mxGeometry relative="1" as="geometry" />
        </mxCell>
        <mxCell id="mRD8FD_FBO0UX32xd2J2-15" value="Elastic IP address" style="whiteSpace=wrap;html=1;fillColor=#d5e8d4;strokeColor=#82b366;" vertex="1" parent="1">
          <mxGeometry x="335" y="170" width="90" height="60" as="geometry" />
        </mxCell>
        <mxCell id="mRD8FD_FBO0UX32xd2J2-53" value="" style="edgeStyle=orthogonalEdgeStyle;orthogonalLoop=1;jettySize=auto;html=1;" edge="1" parent="1" source="mRD8FD_FBO0UX32xd2J2-17" target="mRD8FD_FBO0UX32xd2J2-5">
          <mxGeometry relative="1" as="geometry" />
        </mxCell>
        <mxCell id="mRD8FD_FBO0UX32xd2J2-17" value="172.16.0.0" style="whiteSpace=wrap;html=1;fillColor=#dae8fc;strokeColor=#6c8ebf;" vertex="1" parent="1">
          <mxGeometry x="150" y="170" width="120" height="20" as="geometry" />
        </mxCell>
        <mxCell id="mRD8FD_FBO0UX32xd2J2-18" value="172.16.1.0" style="whiteSpace=wrap;html=1;fillColor=#dae8fc;strokeColor=#6c8ebf;" vertex="1" parent="1">
          <mxGeometry x="150" y="190" width="120" height="20" as="geometry" />
        </mxCell>
        <mxCell id="mRD8FD_FBO0UX32xd2J2-19" value="172.16.2.0" style="whiteSpace=wrap;html=1;fillColor=#dae8fc;strokeColor=#6c8ebf;" vertex="1" parent="1">
          <mxGeometry x="150" y="210" width="120" height="20" as="geometry" />
        </mxCell>
        <mxCell id="mRD8FD_FBO0UX32xd2J2-21" value="" style="shape=image;verticalLabelPosition=bottom;labelBackgroundColor=default;verticalAlign=top;aspect=fixed;imageAspect=0;image=https://encrypted-tbn0.gstatic.com/images?q=tbn:ANd9GcTj5NO7DuU2AHeEAocvffvXdriN1JOvpBVkiA&amp;usqp=CAU;" vertex="1" parent="1">
          <mxGeometry x="355" y="310" width="50" height="50" as="geometry" />
        </mxCell>
        <mxCell id="mRD8FD_FBO0UX32xd2J2-23" value="" style="endArrow=none;dashed=1;html=1;dashPattern=1 3;strokeWidth=2;fillColor=#f8cecc;strokeColor=#b85450;gradientColor=#ea6b66;" edge="1" parent="1">
          <mxGeometry width="50" height="50" relative="1" as="geometry">
            <mxPoint x="120" y="450" as="sourcePoint" />
            <mxPoint x="120" y="240" as="targetPoint" />
            <Array as="points" />
          </mxGeometry>
        </mxCell>
        <mxCell id="mRD8FD_FBO0UX32xd2J2-25" value="" style="endArrow=none;dashed=1;html=1;dashPattern=1 3;strokeWidth=2;startArrow=none;" edge="1" parent="1" source="mRD8FD_FBO0UX32xd2J2-35">
          <mxGeometry width="50" height="50" relative="1" as="geometry">
            <mxPoint x="120" y="260" as="sourcePoint" />
            <mxPoint x="270" y="260" as="targetPoint" />
            <Array as="points" />
          </mxGeometry>
        </mxCell>
        <mxCell id="mRD8FD_FBO0UX32xd2J2-26" value="" style="endArrow=none;dashed=1;html=1;dashPattern=1 3;strokeWidth=2;fillColor=#f8cecc;strokeColor=#b85450;gradientColor=#ea6b66;" edge="1" parent="1">
          <mxGeometry width="50" height="50" relative="1" as="geometry">
            <mxPoint x="269" y="440" as="sourcePoint" />
            <mxPoint x="269" y="240" as="targetPoint" />
            <Array as="points" />
          </mxGeometry>
        </mxCell>
        <mxCell id="mRD8FD_FBO0UX32xd2J2-27" value="" style="endArrow=none;dashed=1;html=1;dashPattern=1 3;strokeWidth=2;" edge="1" parent="1">
          <mxGeometry width="50" height="50" relative="1" as="geometry">
            <mxPoint x="270" y="440" as="sourcePoint" />
            <mxPoint x="120" y="440" as="targetPoint" />
            <Array as="points" />
          </mxGeometry>
        </mxCell>
        <mxCell id="mRD8FD_FBO0UX32xd2J2-28" value="" style="endArrow=none;dashed=1;html=1;dashPattern=1 3;strokeWidth=2;" edge="1" parent="1">
          <mxGeometry width="50" height="50" relative="1" as="geometry">
            <mxPoint x="480" y="260" as="sourcePoint" />
            <mxPoint x="630" y="260" as="targetPoint" />
            <Array as="points" />
          </mxGeometry>
        </mxCell>
        <mxCell id="mRD8FD_FBO0UX32xd2J2-29" value="" style="endArrow=none;dashed=1;html=1;dashPattern=1 3;strokeWidth=2;fillColor=#f8cecc;strokeColor=#b85450;gradientColor=#ea6b66;" edge="1" parent="1">
          <mxGeometry width="50" height="50" relative="1" as="geometry">
            <mxPoint x="480" y="240" as="sourcePoint" />
            <mxPoint x="480" y="440" as="targetPoint" />
            <Array as="points" />
          </mxGeometry>
        </mxCell>
        <mxCell id="mRD8FD_FBO0UX32xd2J2-30" value="" style="endArrow=none;dashed=1;html=1;dashPattern=1 3;strokeWidth=2;fillColor=#f8cecc;strokeColor=#b85450;gradientColor=#ea6b66;" edge="1" parent="1">
          <mxGeometry width="50" height="50" relative="1" as="geometry">
            <mxPoint x="630" y="240" as="sourcePoint" />
            <mxPoint x="630" y="440" as="targetPoint" />
            <Array as="points" />
          </mxGeometry>
        </mxCell>
        <mxCell id="mRD8FD_FBO0UX32xd2J2-31" value="" style="endArrow=none;dashed=1;html=1;dashPattern=1 3;strokeWidth=2;" edge="1" parent="1">
          <mxGeometry width="50" height="50" relative="1" as="geometry">
            <mxPoint x="480" y="440" as="sourcePoint" />
            <mxPoint x="630" y="440" as="targetPoint" />
            <Array as="points" />
          </mxGeometry>
        </mxCell>
        <mxCell id="mRD8FD_FBO0UX32xd2J2-41" style="edgeStyle=orthogonalEdgeStyle;orthogonalLoop=1;jettySize=auto;html=1;exitX=0;exitY=0.5;exitDx=0;exitDy=0;exitPerimeter=0;entryX=0;entryY=0.5;entryDx=0;entryDy=0;entryPerimeter=0;" edge="1" parent="1" source="mRD8FD_FBO0UX32xd2J2-35" target="mRD8FD_FBO0UX32xd2J2-36">
          <mxGeometry relative="1" as="geometry">
            <Array as="points">
              <mxPoint x="90" y="320" />
              <mxPoint x="90" y="320" />
            </Array>
          </mxGeometry>
        </mxCell>
        <mxCell id="mRD8FD_FBO0UX32xd2J2-69" style="edgeStyle=orthogonalEdgeStyle;orthogonalLoop=1;jettySize=auto;html=1;entryX=0.5;entryY=0;entryDx=0;entryDy=0;exitX=0.5;exitY=1;exitDx=0;exitDy=0;" edge="1" parent="1" source="mRD8FD_FBO0UX32xd2J2-15" target="mRD8FD_FBO0UX32xd2J2-21">
          <mxGeometry relative="1" as="geometry" />
        </mxCell>
        <mxCell id="mRD8FD_FBO0UX32xd2J2-36" value="" style="line;strokeWidth=2;html=1;" vertex="1" parent="1">
          <mxGeometry x="100" y="430" width="580" height="10" as="geometry" />
        </mxCell>
        <mxCell id="mRD8FD_FBO0UX32xd2J2-46" style="edgeStyle=orthogonalEdgeStyle;orthogonalLoop=1;jettySize=auto;html=1;exitX=1;exitY=0.5;exitDx=0;exitDy=0;exitPerimeter=0;entryX=1;entryY=0.5;entryDx=0;entryDy=0;entryPerimeter=0;" edge="1" parent="1" source="mRD8FD_FBO0UX32xd2J2-35" target="mRD8FD_FBO0UX32xd2J2-36">
          <mxGeometry relative="1" as="geometry">
            <mxPoint x="669" y="290" as="sourcePoint" />
            <mxPoint x="670" y="420" as="targetPoint" />
            <Array as="points">
              <mxPoint x="669" y="285" />
            </Array>
          </mxGeometry>
        </mxCell>
        <mxCell id="mRD8FD_FBO0UX32xd2J2-47" value="AZ - 1" style="text;html=1;align=center;verticalAlign=middle;resizable=0;points=[];autosize=1;strokeColor=none;fillColor=none;fontStyle=1;" vertex="1" parent="1">
          <mxGeometry x="175" y="260" width="50" height="20" as="geometry" />
        </mxCell>
        <mxCell id="mRD8FD_FBO0UX32xd2J2-49" value="AZ - 2" style="text;html=1;align=center;verticalAlign=middle;resizable=0;points=[];autosize=1;strokeColor=none;fillColor=none;fontStyle=1;" vertex="1" parent="1">
          <mxGeometry x="530" y="260" width="50" height="20" as="geometry" />
        </mxCell>
        <mxCell id="mRD8FD_FBO0UX32xd2J2-55" value="PUBLIC Subnet" style="whiteSpace=wrap;html=1;aspect=fixed;fillColor=#e1d5e7;strokeColor=#9673a6;" vertex="1" parent="1">
          <mxGeometry x="160" y="280" width="80" height="80" as="geometry" />
        </mxCell>
        <mxCell id="mRD8FD_FBO0UX32xd2J2-56" value="PUBLIC Subnet" style="whiteSpace=wrap;html=1;aspect=fixed;fillColor=#e1d5e7;strokeColor=#9673a6;" vertex="1" parent="1">
          <mxGeometry x="515" y="280" width="80" height="80" as="geometry" />
        </mxCell>
        <mxCell id="mRD8FD_FBO0UX32xd2J2-58" value="" style="verticalLabelPosition=bottom;verticalAlign=top;html=1;shape=mxgraph.basic.rect;fillColor2=none;strokeWidth=1;size=20;indent=5;fillColor=#dae8fc;strokeColor=#6c8ebf;" vertex="1" parent="1">
          <mxGeometry x="160" y="370" width="80" height="60" as="geometry" />
        </mxCell>
        <mxCell id="mRD8FD_FBO0UX32xd2J2-60" value="&lt;br&gt;Private Subnet&lt;br&gt;&lt;br&gt;EC2&amp;nbsp;" style="text;html=1;strokeColor=none;fillColor=none;align=center;verticalAlign=middle;whiteSpace=wrap;" vertex="1" parent="1">
          <mxGeometry x="160" y="380" width="70" height="30" as="geometry" />
        </mxCell>
        <mxCell id="mRD8FD_FBO0UX32xd2J2-63" value="" style="verticalLabelPosition=bottom;verticalAlign=top;html=1;shape=mxgraph.basic.rect;fillColor2=none;strokeWidth=1;size=20;indent=5;fillColor=#dae8fc;strokeColor=#6c8ebf;" vertex="1" parent="1">
          <mxGeometry x="515" y="370" width="80" height="60" as="geometry" />
        </mxCell>
        <mxCell id="mRD8FD_FBO0UX32xd2J2-64" value="&lt;br&gt;Private Subnet&lt;br&gt;&lt;br&gt;EC2&amp;nbsp;" style="text;html=1;strokeColor=none;fillColor=none;align=center;verticalAlign=middle;whiteSpace=wrap;" vertex="1" parent="1">
          <mxGeometry x="525" y="380" width="60" height="30" as="geometry" />
        </mxCell>
        <mxCell id="mRD8FD_FBO0UX32xd2J2-66" value="172.16.0.0" style="whiteSpace=wrap;html=1;fillColor=#dae8fc;strokeColor=#6c8ebf;" vertex="1" parent="1">
          <mxGeometry x="320" y="370" width="120" height="20" as="geometry" />
        </mxCell>
        <mxCell id="mRD8FD_FBO0UX32xd2J2-77" value="" style="edgeStyle=orthogonalEdgeStyle;orthogonalLoop=1;jettySize=auto;html=1;" edge="1" parent="1" source="mRD8FD_FBO0UX32xd2J2-67">
          <mxGeometry relative="1" as="geometry">
            <mxPoint x="240" y="400" as="targetPoint" />
            <Array as="points">
              <mxPoint x="260" y="400" />
              <mxPoint x="260" y="400" />
            </Array>
          </mxGeometry>
        </mxCell>
        <mxCell id="mRD8FD_FBO0UX32xd2J2-80" value="" style="edgeStyle=orthogonalEdgeStyle;orthogonalLoop=1;jettySize=auto;html=1;entryX=-0.012;entryY=0.484;entryDx=0;entryDy=0;entryPerimeter=0;" edge="1" parent="1" source="mRD8FD_FBO0UX32xd2J2-67" target="mRD8FD_FBO0UX32xd2J2-63">
          <mxGeometry relative="1" as="geometry">
            <mxPoint x="510" y="400" as="targetPoint" />
            <Array as="points">
              <mxPoint x="514" y="400" />
            </Array>
          </mxGeometry>
        </mxCell>
        <mxCell id="mRD8FD_FBO0UX32xd2J2-67" value="172.16.1.0" style="whiteSpace=wrap;html=1;fillColor=#dae8fc;strokeColor=#6c8ebf;" vertex="1" parent="1">
          <mxGeometry x="320" y="390" width="120" height="20" as="geometry" />
        </mxCell>
        <mxCell id="mRD8FD_FBO0UX32xd2J2-68" value="172.16.2.0" style="whiteSpace=wrap;html=1;fillColor=#dae8fc;strokeColor=#6c8ebf;" vertex="1" parent="1">
          <mxGeometry x="320" y="410" width="120" height="20" as="geometry" />
        </mxCell>
        <mxCell id="mRD8FD_FBO0UX32xd2J2-35" value="" style="line;strokeWidth=2;html=1;" vertex="1" parent="1">
          <mxGeometry x="90" y="250" width="580" height="10" as="geometry" />
        </mxCell>
        <mxCell id="mRD8FD_FBO0UX32xd2J2-76" value="" style="endArrow=none;dashed=1;html=1;dashPattern=1 3;strokeWidth=2;" edge="1" parent="1" target="mRD8FD_FBO0UX32xd2J2-35">
          <mxGeometry width="50" height="50" relative="1" as="geometry">
            <mxPoint x="120" y="260" as="sourcePoint" />
            <mxPoint x="270" y="260" as="targetPoint" />
            <Array as="points" />
          </mxGeometry>
        </mxCell>
        <mxCell id="mRD8FD_FBO0UX32xd2J2-83" value="" style="endArrow=none;dashed=1;html=1;dashPattern=1 3;strokeWidth=2;fillColor=#f8cecc;gradientColor=#ea6b66;strokeColor=#b85450;" edge="1" parent="1">
          <mxGeometry width="50" height="50" relative="1" as="geometry">
            <mxPoint x="480" y="240" as="sourcePoint" />
            <mxPoint x="630" y="240" as="targetPoint" />
          </mxGeometry>
        </mxCell>
        <mxCell id="mRD8FD_FBO0UX32xd2J2-84" value="" style="endArrow=none;dashed=1;html=1;dashPattern=1 3;strokeWidth=2;fillColor=#f8cecc;gradientColor=#ea6b66;strokeColor=#b85450;" edge="1" parent="1">
          <mxGeometry width="50" height="50" relative="1" as="geometry">
            <mxPoint x="120.00000000000023" y="240" as="sourcePoint" />
            <mxPoint x="270.0000000000002" y="240" as="targetPoint" />
          </mxGeometry>
        </mxCell>
        <mxCell id="mRD8FD_FBO0UX32xd2J2-89" value="" style="endArrow=none;html=1;exitX=1;exitY=0.5;exitDx=0;exitDy=0;" edge="1" parent="1" source="mRD8FD_FBO0UX32xd2J2-21">
          <mxGeometry width="50" height="50" relative="1" as="geometry">
            <mxPoint x="460" y="290" as="sourcePoint" />
            <mxPoint x="510" y="335" as="targetPoint" />
          </mxGeometry>
        </mxCell>
        <mxCell id="mRD8FD_FBO0UX32xd2J2-90" value="" style="endArrow=none;html=1;" edge="1" parent="1">
          <mxGeometry width="50" height="50" relative="1" as="geometry">
            <mxPoint x="240" y="334" as="sourcePoint" />
            <mxPoint x="355.0000000000002" y="334.23" as="targetPoint" />
          </mxGeometry>
        </mxCell>
        <mxCell id="mRD8FD_FBO0UX32xd2J2-91" value="Internet Gateway" style="text;html=1;strokeColor=none;fillColor=none;align=center;verticalAlign=middle;whiteSpace=wrap;fontStyle=1" vertex="1" parent="1">
          <mxGeometry x="220" y="110" width="60" height="30" as="geometry" />
        </mxCell>
        <mxCell id="mRD8FD_FBO0UX32xd2J2-92" value="Route Table" style="text;html=1;strokeColor=none;fillColor=none;align=center;verticalAlign=middle;whiteSpace=wrap;fontStyle=1" vertex="1" parent="1">
          <mxGeometry x="140" y="140" width="60" height="30" as="geometry" />
        </mxCell>
        <mxCell id="mRD8FD_FBO0UX32xd2J2-99" value="&lt;font style=&quot;font-size: 24px&quot; color=&quot;#0000ff&quot;&gt;AWS ALB with EC2 Instances in Private VPC and multiple Availability zones&lt;/font&gt;" style="text;html=1;strokeColor=none;fillColor=none;align=center;verticalAlign=middle;whiteSpace=wrap;fontStyle=1" vertex="1" parent="1">
          <mxGeometry x="150" y="482" width="460" height="30" as="geometry" />
        </mxCell>
      </root>
    </mxGraphModel>
  </diagram>
</mxfile>
